<svg width="24" height="22" viewBox="0 0 24 22" fill="none" xmlns="http://www.w3.org/2000/svg">
<path d="M12.0055 5.60928C8.59832 5.60928 5.85011 8.01396 5.85011 10.9952C5.85011 13.9765 8.59832 16.3812 12.0055 16.3812C15.4126 16.3812 18.1608 13.9765 18.1608 10.9952C18.1608 8.01396 15.4126 5.60928 12.0055 5.60928ZM12.0055 14.4968C9.80368 14.4968 8.00368 12.9265 8.00368 10.9952C8.00368 9.06396 9.79832 7.49365 12.0055 7.49365C14.2126 7.49365 16.0072 9.06396 16.0072 10.9952C16.0072 12.9265 14.2072 14.4968 12.0055 14.4968ZM19.8483 5.38896C19.8483 6.0874 19.2055 6.64522 18.4126 6.64522C17.6144 6.64522 16.9769 6.08271 16.9769 5.38896C16.9769 4.69521 17.6197 4.13271 18.4126 4.13271C19.2055 4.13271 19.8483 4.69521 19.8483 5.38896ZM23.9251 6.66397C23.834 4.98115 23.3947 3.49053 21.9858 2.2624C20.5822 1.03428 18.8787 0.649902 16.9555 0.565527C14.9733 0.46709 9.03225 0.46709 7.05011 0.565527C5.13225 0.645215 3.42868 1.02959 2.01975 2.25771C0.610826 3.48584 0.176897 4.97646 0.0804687 6.65928C-0.0320312 8.39365 -0.0320312 13.5921 0.0804687 15.3265C0.17154 17.0093 0.610826 18.4999 2.01975 19.728C3.42868 20.9562 5.12689 21.3405 7.05011 21.4249C9.03225 21.5233 14.9733 21.5233 16.9555 21.4249C18.8787 21.3452 20.5822 20.9608 21.9858 19.728C23.3894 18.4999 23.8287 17.0093 23.9251 15.3265C24.0376 13.5921 24.0376 8.39834 23.9251 6.66397ZM21.3644 17.1874C20.9465 18.1062 20.1376 18.814 19.0822 19.1843C17.5019 19.7327 13.7519 19.6062 12.0055 19.6062C10.259 19.6062 6.50368 19.728 4.92868 19.1843C3.87868 18.8187 3.06975 18.1108 2.64654 17.1874C2.01975 15.8046 2.1644 12.5233 2.1644 10.9952C2.1644 9.46709 2.02511 6.18115 2.64654 4.80303C3.0644 3.88428 3.87332 3.17646 4.92868 2.80615C6.50904 2.25771 10.259 2.38428 12.0055 2.38428C13.7519 2.38428 17.5072 2.2624 19.0822 2.80615C20.1322 3.17178 20.9412 3.87959 21.3644 4.80303C21.9912 6.18584 21.8465 9.46709 21.8465 10.9952C21.8465 12.5233 21.9912 15.8093 21.3644 17.1874Z" fill="white"/>
</svg>
